<?xml version="1.0" standalone="no"?>
<!DOCTYPE svg PUBLIC "-//W3C//DTD SVG 20010904//EN"
 "http://www.w3.org/TR/2001/REC-SVG-20010904/DTD/svg10.dtd">
<svg version="1.0" xmlns="http://www.w3.org/2000/svg"
 width="96.000000pt" height="96.000000pt" viewBox="0 0 96.000000 96.000000"
 preserveAspectRatio="xMidYMid meet">

<g transform="translate(0.000000,96.000000) scale(0.100000,-0.100000)"
fill="#000000" stroke="none">
<path d="M347 873 c-3 -4 -8 -23 -12 -40 l-7 -33 -65 0 c-58 0 -67 -3 -94 -29
l-29 -29 0 -221 0 -220 -27 -3 c-22 -2 -28 -8 -28 -28 0 -24 3 -25 69 -28 l68
-3 -8 -47 c-15 -89 -12 -107 16 -107 23 0 26 5 39 78 l14 77 83 0 83 0 3 -57
c3 -54 5 -58 28 -58 23 0 25 4 28 58 l3 57 83 0 83 0 14 -77 c13 -73 16 -78
39 -78 28 0 31 18 16 107 l-8 47 68 3 c66 3 69 4 69 28 0 20 -6 26 -27 28
l-28 3 0 220 0 221 -29 29 c-27 26 -36 29 -94 29 l-65 0 -9 38 c-7 30 -13 37
-33 37 -22 0 -25 -4 -24 -37 l1 -38 -87 0 -87 0 1 38 c1 31 -3 38 -21 40 -11
2 -23 0 -26 -5z m411 -317 l2 -180 -74 72 c-84 82 -103 87 -162 43 l-39 -28
-63 58 c-80 75 -101 76 -171 13 l-51 -46 0 119 c0 66 3 123 7 126 4 4 128 6
277 5 l271 -3 3 -179z m-371 -88 l53 -52 -57 -58 -57 -58 -63 0 -63 0 0 50 c0
49 2 52 63 110 34 33 64 59 67 60 2 0 28 -23 57 -52z m284 -88 l84 -79 -170
-1 -170 0 80 80 c44 44 82 80 86 80 3 0 44 -36 90 -80z"/>
<path d="M616 664 c-9 -8 -16 -24 -16 -34 0 -43 54 -65 84 -34 9 8 16 24 16
34 0 10 -7 26 -16 34 -8 9 -24 16 -34 16 -10 0 -26 -7 -34 -16z"/>
</g>
</svg>
