<?xml version="1.0" standalone="no"?>
<!DOCTYPE svg PUBLIC "-//W3C//DTD SVG 20010904//EN"
 "http://www.w3.org/TR/2001/REC-SVG-20010904/DTD/svg10.dtd">
<svg version="1.0" xmlns="http://www.w3.org/2000/svg"
 width="96.000000pt" height="96.000000pt" viewBox="0 0 96.000000 96.000000"
 preserveAspectRatio="xMidYMid meet">

<g transform="translate(0.000000,96.000000) scale(0.100000,-0.100000)"
fill="#000000" stroke="none">
<path d="M347 873 c-3 -4 -8 -23 -12 -40 l-7 -33 -65 0 c-58 0 -67 -3 -94 -29
l-29 -29 0 -143 0 -143 28 25 c15 14 50 46 79 72 72 65 88 63 172 -18 37 -36
70 -65 73 -65 4 0 25 16 48 35 64 53 79 49 186 -57 l94 -92 0 193 0 193 -29
29 c-27 26 -36 29 -94 29 l-65 0 -9 38 c-7 30 -13 37 -33 37 -22 0 -25 -4 -24
-37 l1 -38 -87 0 -87 0 1 38 c1 31 -3 38 -21 40 -11 2 -23 0 -26 -5z m357
-189 c30 -29 9 -84 -31 -84 -21 0 -53 29 -53 48 0 22 30 52 51 52 10 0 25 -7
33 -16z"/>
<path d="M227 452 c-73 -73 -87 -93 -87 -119 0 -27 -4 -32 -27 -35 -22 -2 -28
-8 -28 -28 0 -24 3 -25 69 -28 l68 -3 -8 -47 c-15 -89 -12 -107 16 -107 23 0
26 5 39 78 l14 77 83 0 83 0 3 -57 c3 -54 5 -58 28 -58 23 0 25 4 28 58 l3 57
83 0 83 0 14 -77 c13 -73 16 -78 39 -78 28 0 31 18 16 107 l-8 47 68 3 c66 3
69 4 69 28 0 22 -5 25 -39 28 -35 3 -52 15 -133 93 -52 49 -97 89 -101 89 -4
0 -48 -40 -97 -90 -86 -87 -91 -90 -135 -90 l-44 0 62 63 63 63 -60 57 c-33
31 -63 57 -68 57 -5 0 -48 -39 -96 -88z"/>
</g>
</svg>
