<?xml version="1.0" standalone="no"?>
<!DOCTYPE svg PUBLIC "-//W3C//DTD SVG 20010904//EN"
 "http://www.w3.org/TR/2001/REC-SVG-20010904/DTD/svg10.dtd">
<svg version="1.0" xmlns="http://www.w3.org/2000/svg"
 width="96.000000pt" height="96.000000pt" viewBox="0 0 96.000000 96.000000"
 preserveAspectRatio="xMidYMid meet">

<g transform="translate(0.000000,96.000000) scale(0.100000,-0.100000)"
fill="#000000" stroke="none">
<path d="M735 888 c-11 -6 -73 -63 -138 -127 -103 -101 -120 -123 -133 -168
l-15 -52 -122 -3 -122 -3 0 -25 0 -25 133 -3 c110 -2 145 1 200 17 64 19 73
27 183 138 154 155 165 179 110 234 -31 30 -62 36 -96 17z"/>
<path d="M109 811 l-29 -29 0 -232 0 -232 29 -29 c29 -28 32 -29 130 -29 l101
0 0 -49 0 -50 -47 -3 c-44 -3 -48 -5 -48 -28 l0 -25 235 0 235 0 0 25 c0 23
-4 25 -47 28 l-48 3 0 50 0 49 101 0 c98 0 101 1 130 29 l29 29 0 213 0 213
-30 -29 -30 -28 -2 -181 -3 -181 -335 0 -335 0 0 225 0 225 211 3 211 2 28 30
29 30 -243 0 -243 0 -29 -29z m451 -601 l0 -50 -80 0 -80 0 0 50 0 50 80 0 80
0 0 -50z"/>
</g>
</svg>
