<?xml version="1.0" standalone="no"?>
<!DOCTYPE svg PUBLIC "-//W3C//DTD SVG 20010904//EN"
 "http://www.w3.org/TR/2001/REC-SVG-20010904/DTD/svg10.dtd">
<svg version="1.0" xmlns="http://www.w3.org/2000/svg"
 width="96.000000pt" height="96.000000pt" viewBox="0 0 96.000000 96.000000"
 preserveAspectRatio="xMidYMid meet">

<g transform="translate(0.000000,96.000000) scale(0.100000,-0.100000)"
fill="#000000" stroke="none">
<path d="M725 881 c-16 -10 -80 -70 -141 -132 -106 -109 -111 -117 -129 -182
-23 -89 -17 -95 72 -72 65 18 72 23 186 134 158 155 173 186 118 242 -34 34
-64 37 -106 10z"/>
<path d="M109 811 l-29 -29 0 -232 0 -232 29 -29 c29 -28 32 -29 130 -29 l101
0 0 -49 0 -50 -47 -3 c-44 -3 -48 -5 -48 -28 l0 -25 235 0 235 0 0 25 c0 23
-4 25 -47 28 l-48 3 0 50 0 49 101 0 c98 0 101 1 130 29 l29 29 0 213 0 213
-137 -136 c-138 -135 -138 -135 -208 -152 -51 -12 -104 -16 -200 -14 l-130 3
0 25 c0 25 1 25 96 28 l97 3 18 72 c17 69 22 76 113 170 l95 97 -243 0 -243 0
-29 -29z m451 -601 l0 -50 -80 0 -80 0 0 50 0 50 80 0 80 0 0 -50z"/>
</g>
</svg>
